<?xml version="1.0" encoding="UTF-8" standalone="no"?>
<svg width="270" height="80" viewBox="0 0 270 80" fill="none" xmlns="http://www.w3.org/2000/svg">
  <!-- Circle with line and inner circle -->
  <circle cx="40" cy="40" r="35" fill="white"/>
  <circle cx="40" cy="40" r="15" stroke="#1E75E5" stroke-width="6" fill="none"/>
  <line x1="40" y1="5" x2="40" y2="75" stroke="#1E75E5" stroke-width="6"/>
  
  <!-- "CrispAI" text - using path to ensure it renders correctly -->
  <path d="M106 27C103.2 27 100.9 27.8 99.0999 29.4C97.3999 30.9 96.5499 32.9 96.5499 35.3C96.5499 37.7 97.3999 39.7 99.0999 41.3C100.9 42.8 103.2 43.6 106 43.6C108.8 43.6 111.1 42.8 112.9 41.3C114.7 39.7 115.6 37.7 115.6 35.3C115.6 32.9 114.7 30.9 112.9 29.4C111.1 27.8 108.8 27 106 27ZM106 31C107.6 31 108.9 31.5 109.9 32.4C110.9 33.3 111.4 34.4 111.4 35.6C111.4 36.8 110.9 37.9 109.9 38.8C108.9 39.7 107.6 40.2 106 40.2C104.4 40.2 103.1 39.7 102.1 38.8C101.1 37.9 100.6 36.8 100.6 35.6C100.6 34.4 101.1 33.3 102.1 32.4C103.1 31.5 104.4 31 106 31Z" fill="white"/>
  <path d="M122.6 27.4H118.5V54.8H122.6V27.4Z" fill="white"/>
  <path d="M127.3 27.4H131.4V54.8H127.3V27.4Z" fill="white"/>
  <path d="M148.5 41C148.5 43.1 147.9 44.8 146.7 46.1C145.5 47.4 143.9 48 142 48C140.1 48 138.5 47.4 137.3 46.1C136.1 44.8 135.5 43.1 135.5 41C135.5 38.9 136.1 37.2 137.3 35.9C138.5 34.6 140.1 34 142 34C143.9 34 145.5 34.6 146.7 35.9C147.9 37.2 148.5 38.9 148.5 41ZM135.7 52C136.9 53 138.3 53.8 139.9 54.3C141.5 54.8 143.1 55 144.9 55C146.7 55 148.4 54.7 150 54.1C151.6 53.5 152.9 52.6 153.9 51.3L150.8 48.6C149.6 49.8 147.9 50.4 145.9 50.4C144.1 50.4 142.5 49.9 141.3 48.9C140.1 47.9 139.5 46.6 139.5 45V27.4H135.5V45.6C135.5 48 135.5 50.6 135.7 52Z" fill="white"/>
  <path d="M157.6 27.4H161.7V43.4C161.7 45.7 162.3 47.4 163.5 48.5C164.7 49.6 166.3 50.2 168.2 50.2C170.1 50.2 171.7 49.6 172.9 48.5C174.1 47.4 174.7 45.7 174.7 43.4V27.4H178.8V43.4C178.8 46.9 177.8 49.6 175.8 51.5C173.8 53.4 171.2 54.4 168 54.4C164.8 54.4 162.2 53.4 160.2 51.5C158.2 49.6 157.2 46.9 157.2 43.4V27.4H157.6Z" fill="white"/>
  <path d="M196 31.2L192.3 34.2C191.1 32.6 189.5 31.8 187.5 31.8C186.1 31.8 184.9 32.2 183.9 33C182.9 33.8 182.4 34.8 182.4 36C182.4 37.2 182.8 38.1 183.6 38.8C184.4 39.5 185.6 40.1 187.2 40.6L189.6 41.3C191.8 42 193.5 43 194.7 44.3C195.9 45.6 196.5 47.3 196.5 49.3C196.5 51.8 195.6 53.8 193.8 55.4C192 57 189.6 57.8 186.6 57.8C182.2 57.8 178.9 56 176.7 52.4L180.4 49.4C181.8 51.6 183.8 52.7 186.4 52.7C187.8 52.7 189 52.3 189.9 51.5C190.9 50.7 191.3 49.7 191.3 48.5C191.3 47.3 190.9 46.4 190.1 45.7C189.3 45 188.1 44.4 186.5 43.9L184.1 43.2C181.9 42.5 180.2 41.5 179 40.2C177.8 38.9 177.2 37.2 177.2 35.2C177.2 32.7 178.1 30.8 179.9 29.2C181.7 27.7 183.9 26.9 186.5 26.9C188.5 26.9 190.3 27.3 191.9 28.1C193.5 28.9 194.9 29.9 196 31.2Z" fill="white"/>
  <path d="M203.1 27.4H199V31.8H203.1V27.4ZM203.1 34H199V54.8H203.1V34Z" fill="white"/>
</svg>