<?xml version="1.0" encoding="UTF-8" standalone="no"?>
<svg width="300" height="200" viewBox="0 0 300 200" fill="none" xmlns="http://www.w3.org/2000/svg">
  <rect width="300" height="200" fill="#EFF8FF"/>
  <circle cx="150" cy="80" r="40" fill="#2F80ED" fill-opacity="0.1" stroke="#2F80ED" stroke-width="2"/>
  <circle cx="150" cy="65" r="15" fill="#2F80ED" fill-opacity="0.1" stroke="#2F80ED" stroke-width="2"/>
  <path d="M120 130C120 113.431 133.431 100 150 100C166.569 100 180 113.431 180 130" stroke="#2F80ED" stroke-width="2"/>
  <circle cx="110" cy="90" r="10" fill="#2F80ED" fill-opacity="0.1" stroke="#2F80ED" stroke-width="2"/>
  <path d="M95 120C95 110.059 102.059 103 112 103C121.941 103 129 110.059 129 120" stroke="#2F80ED" stroke-width="2"/>
  <circle cx="190" cy="90" r="10" fill="#2F80ED" fill-opacity="0.1" stroke="#2F80ED" stroke-width="2"/>
  <path d="M171 120C171 110.059 178.059 103 188 103C197.941 103 205 110.059 205 120" stroke="#2F80ED" stroke-width="2"/>
  <text x="150" y="170" font-family="sans-serif" font-size="16" font-weight="bold" fill="#2F80ED" text-anchor="middle">AI Recruitment Assistant</text>
</svg>