<?xml version="1.0" encoding="UTF-8" standalone="no"?>
<svg width="300" height="200" viewBox="0 0 300 200" fill="none" xmlns="http://www.w3.org/2000/svg">
  <rect width="300" height="200" fill="#F9F0FF"/>
  
  <!-- Resume document -->
  <rect x="70" y="40" width="120" height="140" rx="4" fill="#EFDBFF" stroke="#722ED1" stroke-width="2"/>
  
  <!-- Document content -->
  <circle cx="100" cy="70" r="15" fill="#D3ADF7" stroke="#722ED1" stroke-width="1.5"/>
  <line x1="130" y1="65" x2="170" y2="65" stroke="#722ED1" stroke-width="1.5" stroke-linecap="round"/>
  <line x1="130" y1="75" x2="160" y2="75" stroke="#722ED1" stroke-width="1.5" stroke-linecap="round"/>
  
  <line x1="90" y1="100" x2="170" y2="100" stroke="#722ED1" stroke-width="1.5" stroke-linecap="round"/>
  <line x1="90" y1="115" x2="170" y2="115" stroke="#722ED1" stroke-width="1.5" stroke-linecap="round"/>
  <line x1="90" y1="130" x2="170" y2="130" stroke="#722ED1" stroke-width="1.5" stroke-linecap="round"/>
  <line x1="90" y1="145" x2="130" y2="145" stroke="#722ED1" stroke-width="1.5" stroke-linecap="round"/>
  
  <!-- Magnifying glass -->
  <circle cx="200" cy="100" r="30" fill="none" stroke="#722ED1" stroke-width="2"/>
  <line x1="223" y1="123" x2="240" y2="140" stroke="#722ED1" stroke-width="3" stroke-linecap="round"/>
  
  <!-- AI agent nodes -->
  <circle cx="190" cy="60" r="8" fill="#B37FEB"/>
  <circle cx="220" cy="75" r="8" fill="#B37FEB"/>
  <circle cx="230" cy="110" r="8" fill="#B37FEB"/>
  <circle cx="210" cy="135" r="8" fill="#B37FEB"/>
  <circle cx="175" cy="130" r="8" fill="#B37FEB"/>
  
  <!-- Connections between AI agents -->
  <line x1="190" y1="60" x2="220" y2="75" stroke="#B37FEB" stroke-width="1.5"/>
  <line x1="220" y1="75" x2="230" y2="110" stroke="#B37FEB" stroke-width="1.5"/>
  <line x1="230" y1="110" x2="210" y2="135" stroke="#B37FEB" stroke-width="1.5"/>
  <line x1="210" y1="135" x2="175" y2="130" stroke="#B37FEB" stroke-width="1.5"/>
  <line x1="175" y1="130" x2="190" y2="60" stroke="#B37FEB" stroke-width="1.5"/>
  
  <!-- Title -->
  <text x="150" y="190" font-family="sans-serif" font-size="16" font-weight="bold" fill="#531DAB" text-anchor="middle">Multi-Agent Resume Analyzer</text>
</svg>